<?xml version="1.0" standalone="no"?>
<!DOCTYPE svg PUBLIC "-//W3C//DTD SVG 20010904//EN"
 "http://www.w3.org/TR/2001/REC-SVG-20010904/DTD/svg10.dtd">
<svg version="1.0" xmlns="http://www.w3.org/2000/svg"
 width="600.000000pt" height="500.000000pt" viewBox="0 0 600.000000 500.000000"
 preserveAspectRatio="xMidYMid meet">
<metadata>
Created by potrace 1.16, written by Peter Selinger 2001-2019
</metadata>
<g transform="translate(0.000000,500.000000) scale(0.100000,-0.100000)"
fill="#000000" stroke="none">
<path d="M3818 4264 c11 -16 32 -40 46 -53 14 -14 26 -28 26 -32 0 -4 -29 -49
-64 -101 l-65 -95 63 -94 c34 -52 80 -122 101 -156 21 -35 41 -63 44 -63 3 0
5 134 3 297 -2 214 -7 300 -15 306 -7 4 -36 5 -65 2 -31 -3 -61 -1 -74 6 l-21
11 21 -28z"/>
<path d="M2536 4155 c-3 -8 -1 -26 5 -39 14 -29 -3 -66 -29 -66 -10 0 -41 -12
-70 -26 -41 -20 -55 -23 -71 -14 -12 6 -21 17 -21 24 0 24 -26 38 -39 22 -15
-17 -5 -44 20 -51 27 -9 24 -50 -7 -91 -15 -19 -24 -37 -20 -41 3 -3 6 -1 6 6
0 7 4 10 9 6 5 -3 12 -1 15 3 3 5 19 9 35 10 16 0 39 5 50 11 14 8 22 8 27 0
4 -7 9 -7 13 -1 3 5 21 17 40 27 33 17 35 17 48 -1 12 -17 13 -16 14 7 1 15 5
8 12 -21 l11 -45 4 35 c5 48 14 54 53 37 19 -7 41 -12 49 -9 9 2 7 -2 -5 -11
-18 -14 -18 -15 5 -12 14 2 30 4 35 6 6 2 20 -2 32 -9 12 -7 33 -16 47 -22
l25 -9 -20 34 c-11 18 -27 39 -35 45 -15 13 -20 35 -5 26 4 -3 13 6 19 19 7
14 18 25 27 25 19 0 19 30 1 55 -14 19 -15 19 -35 1 -12 -11 -21 -25 -21 -31
0 -7 -7 -18 -16 -26 -13 -10 -24 -10 -62 3 -26 9 -60 19 -76 23 -26 5 -28 8
-21 41 3 19 3 44 0 54 -7 24 -40 27 -49 5z"/>
<path d="M3787 3883 c-4 -4 -36 -6 -72 -5 -35 1 -66 -2 -69 -6 -3 -5 23 -52
57 -105 l62 -97 84 0 c72 0 82 2 77 16 -6 16 -126 204 -130 204 -2 0 -6 -3 -9
-7z"/>
<path d="M3509 3872 c-36 -3 -36 -4 -43 -55 -3 -29 -6 -76 -6 -104 l0 -53 70
0 70 0 0 108 0 107 -27 0 c-16 0 -44 -1 -64 -3z"/>
<path d="M2475 3753 c-33 -7 -109 -36 -122 -45 -8 -7 -10 -3 -6 11 3 12 1 21
-6 21 -6 0 -11 -11 -11 -23 0 -16 -15 -36 -49 -63 -59 -47 -128 -146 -155
-223 -20 -59 -24 -114 -29 -423 l-2 -177 35 -6 c19 -4 64 -22 98 -41 l64 -35
43 40 c71 66 98 76 200 76 86 0 94 -2 170 -41 218 -113 265 -140 265 -151 0
-22 -22 -14 -125 42 -178 98 -225 117 -297 123 -58 4 -75 1 -121 -21 -29 -15
-66 -40 -82 -57 l-29 -30 24 -25 c29 -31 33 -31 73 -2 93 68 173 64 347 -17
69 -32 144 -66 168 -75 44 -16 59 -37 20 -26 -13 3 -81 35 -153 70 -177 86
-224 98 -307 75 -38 -11 -98 -54 -98 -71 0 -5 15 -26 33 -45 33 -36 33 -36 65
-20 56 29 130 21 234 -25 51 -22 131 -49 178 -60 l85 -19 -65 4 c-49 3 -91 15
-173 51 -124 54 -193 65 -250 41 -42 -17 -42 -14 8 -86 52 -74 59 -91 44 -101
-12 -7 -11 -11 1 -19 12 -8 10 -10 -9 -10 -16 0 -21 4 -17 15 3 8 -24 58 -63
117 -86 131 -179 219 -279 265 -41 19 -76 33 -78 31 -4 -5 -7 -53 -5 -88 1
-20 13 -31 64 -55 42 -20 87 -54 137 -105 73 -72 178 -215 167 -226 -3 -3 -13
7 -23 23 -10 15 -47 65 -82 111 -68 89 -137 149 -214 188 l-48 24 0 -72 0 -73
58 -37 c55 -36 185 -158 168 -158 -5 0 -35 25 -67 55 -59 54 -141 115 -155
115 -4 0 -4 -33 -1 -74 l5 -74 -91 5 -92 5 -27 -44 c-44 -71 -71 -91 -132 -96
-65 -5 -62 3 -76 -182 -5 -74 -15 -193 -21 -265 -6 -71 -16 -216 -23 -321 -12
-190 -12 -191 -45 -245 -19 -30 -52 -71 -75 -91 -22 -21 -36 -38 -29 -38 7 0
10 -7 6 -16 -5 -13 6 -14 88 -9 51 4 114 7 139 7 25 0 51 6 59 12 12 9 13 8 6
-3 -7 -11 -1 -13 31 -8 46 7 309 22 479 27 51 1 63 4 45 10 l-25 8 28 1 c15 1
27 -4 27 -9 0 -7 7 -7 21 0 11 7 28 8 37 4 9 -4 23 -6 31 -5 7 1 25 0 39 -4
21 -5 23 -8 11 -16 -9 -6 3 -7 36 -3 28 3 109 7 180 7 72 1 132 5 135 8 3 3
22 9 43 13 28 5 37 4 32 -4 -8 -13 222 -7 415 10 58 5 220 12 360 16 140 3
259 9 265 12 5 4 66 8 135 8 185 2 225 6 207 19 -12 8 9 11 81 9 53 0 114 1
135 4 l39 4 -4 179 -3 179 -30 25 c-90 75 -116 81 -45 10 36 -37 39 -44 39
-95 0 -30 -3 -48 -6 -40 -3 8 -17 27 -30 42 -17 17 -27 42 -30 72 l-6 46 -40
0 c-33 0 -38 2 -27 14 10 13 -11 15 -154 15 l-166 1 -2 -32 c0 -18 -4 19 -8
82 -4 63 -5 118 -1 123 4 4 31 10 59 14 l52 6 -1 81 c-1 45 -4 107 -8 139 l-6
59 -55 20 c-50 18 -71 19 -232 14 l-178 -6 -1 22 c-1 13 -1 26 0 30 2 12 -35
16 -189 23 -157 7 -194 10 -207 18 -8 5 -120 14 -268 23 -33 2 -107 6 -165 10
-58 3 -117 6 -132 7 -16 0 -28 3 -28 6 0 8 -140 6 -173 -3 -25 -6 -27 -4 -26
21 0 25 1 26 10 8 7 -15 8 -8 4 24 l-6 43 32 -4 c19 -3 33 0 36 8 6 17 181 9
210 -9 6 -4 15 -3 18 3 5 8 14 7 28 -3 13 -8 30 -11 42 -7 11 4 31 4 45 1 14
-4 31 -6 38 -5 6 1 53 2 104 3 50 0 88 4 84 9 -9 9 -13 9 -82 11 l-56 1 5 478
c3 262 2 462 -1 444 -4 -18 -10 -33 -14 -32 -5 0 -12 0 -17 0 -4 0 -11 26 -13
58 -8 85 -37 169 -80 234 -21 32 -38 62 -38 66 0 5 -21 24 -47 42 -76 54 -79
58 -48 70 14 5 24 14 20 19 -3 6 -17 4 -33 -5 -34 -17 -47 -17 -97 1 -38 13
-137 18 -180 8z m69 -349 c11 -11 16 -34 16 -78 0 -35 5 -67 12 -74 9 -9 9
-12 -2 -13 -8 0 -38 -2 -66 -5 -57 -5 -84 10 -84 49 0 39 36 67 84 67 21 0 26
5 26 25 0 13 -8 29 -17 34 -16 9 -16 10 -1 11 9 0 24 -7 32 -16z m-600 -1066
c-6 -10 -5 -10 8 -1 8 7 17 10 21 7 3 -3 50 -8 104 -10 127 -5 233 -13 258
-18 11 -3 44 -5 73 -5 50 -1 52 -2 51 -28 l-1 -28 -8 25 c-7 21 -8 22 -9 4 -1
-18 -5 -20 -56 -14 -31 3 -58 4 -60 1 -3 -2 -5 -20 -6 -40 0 -20 -3 -30 -6
-23 -4 10 -9 9 -24 -4 -18 -16 -19 -16 -28 7 -7 17 -10 19 -10 7 -1 -14 -10
-18 -36 -18 -21 0 -35 5 -35 13 0 7 -3 8 -8 2 -4 -5 -20 -11 -36 -12 -27 -2
-28 0 -22 30 6 32 5 32 -8 7 -17 -30 -81 -40 -72 -11 5 13 4 13 -8 -1 -7 -10
-16 -18 -19 -18 -4 0 -4 8 -1 18 5 14 3 14 -10 -2 -12 -15 -16 -16 -17 -5 0
10 -2 10 -6 2 -8 -22 -25 -14 -18 10 5 21 5 20 -10 -3 l-16 -25 5 25 c4 22 4
23 -8 8 -15 -20 -31 -25 -20 -5 6 9 4 9 -7 1 -20 -15 -61 -16 -49 -1 6 7 29
36 51 65 37 48 61 70 43 40z m994 -188 c21 -20 29 -40 15 -40 -3 0 -14 7 -23
15 -15 14 -18 14 -30 0 -12 -14 -9 -21 18 -46 18 -17 32 -34 32 -39 0 -5 -14
-20 -32 -34 -32 -24 -32 -25 -14 -45 25 -27 1 -28 -31 -2 -29 24 -29 36 -1 55
l23 16 -27 27 c-26 25 -28 26 -46 10 -10 -9 -25 -17 -34 -17 -19 0 -62 46 -50
54 5 3 15 -1 22 -9 7 -8 15 -15 19 -15 3 0 33 20 66 45 33 25 63 45 66 45 3 0
15 -9 27 -20z m132 -34 c0 -9 -7 -12 -20 -9 -24 6 -26 -9 -5 -27 13 -11 19 -8
40 14 18 20 34 26 65 26 34 0 40 -3 40 -20 0 -21 0 -21 29 1 23 17 36 19 75
14 l47 -7 -6 -42 c-4 -22 -9 -44 -11 -48 -7 -12 -119 4 -130 18 -10 13 -12 12
-17 0 -7 -16 -83 -19 -103 -4 -6 5 -22 5 -34 0 -31 -11 -70 -3 -70 14 0 11 7
13 28 8 26 -7 27 -6 10 13 -18 20 -23 45 -11 56 13 14 73 7 73 -7z m-859 -344
c4 -4 9 -27 12 -51 l5 -44 -126 6 c-70 4 -174 8 -232 8 -67 1 -91 4 -65 8 29
4 40 11 39 22 -1 18 11 19 36 5 8 -5 12 -6 8 -1 -4 4 -3 16 3 27 8 15 13 17
25 8 7 -7 12 -16 9 -20 -6 -10 24 -35 32 -26 3 3 1 6 -5 6 -7 0 -12 9 -12 20
0 22 37 36 70 27 11 -3 20 -2 20 3 0 4 11 5 25 2 14 -2 25 0 25 5 0 10 121 5
131 -5z m1787 -27 c8 -3 11 -13 7 -25 -4 -12 -1 -27 5 -35 11 -13 -6 -15 -124
-15 l-136 0 0 39 c0 29 5 40 16 43 23 4 216 -2 232 -7z m-1780 -157 c-3 -7
-15 -14 -29 -16 -13 -2 -31 -6 -39 -9 -29 -12 -50 -13 -50 -3 0 6 -4 10 -10
10 -16 0 -11 -47 6 -54 8 -3 13 -2 10 3 -3 5 3 11 14 14 11 3 20 1 20 -4 0 -5
18 -9 40 -9 42 0 52 -16 31 -49 -8 -12 -12 -12 -26 2 -9 10 -33 17 -53 18 -20
0 -54 1 -75 2 -20 1 -39 -2 -41 -8 -3 -5 -5 -2 -5 7 -1 9 6 21 16 26 11 7 16
21 15 45 l-1 35 90 1 c70 1 90 -1 87 -11z"/>
<path d="M3993 3523 c7 -11 -119 -18 -536 -29 -186 -6 -242 -10 -253 -21 -11
-11 -14 -52 -14 -191 l0 -177 35 -37 34 -38 99 0 100 0 4 -37 c6 -53 -41 -113
-89 -113 l-33 0 0 -99 c0 -94 1 -99 25 -115 13 -9 37 -16 53 -16 45 0 69 -34
76 -110 6 -60 10 -67 41 -87 88 -58 250 -69 348 -23 l47 22 0 65 c0 62 1 66
43 109 29 30 50 44 69 44 14 0 28 4 30 10 2 5 1 56 -2 112 l-5 103 -35 3 c-41
3 -74 42 -74 89 0 59 3 60 123 65 153 5 145 -7 148 226 3 245 7 237 -118 238
-53 0 -102 4 -109 9 -8 5 -11 4 -7 -2z m-111 -106 c12 -4 18 -20 20 -59 3 -51
4 -53 31 -51 15 1 27 -3 27 -8 0 -6 9 -8 19 -4 11 3 22 1 26 -5 5 -8 11 -8 20
0 18 15 35 4 35 -21 0 -28 31 -21 43 11 4 10 6 8 6 -7 1 -16 -7 -23 -29 -28
-23 -5 -30 -12 -30 -31 0 -13 -4 -24 -10 -24 -5 0 -10 6 -10 13 0 8 -4 7 -10
-3 -8 -12 -10 -9 -10 13 0 20 5 27 20 27 21 0 29 33 10 45 -5 3 -10 -1 -10 -9
0 -20 -14 -20 -30 -1 -9 11 -16 12 -25 5 -8 -7 -16 -7 -19 -2 -3 5 -25 12 -48
16 -23 4 -48 12 -55 18 -9 7 -13 7 -13 -1 0 -13 -81 -11 -91 3 -4 5 -13 5 -20
0 -8 -5 -25 -9 -39 -10 -107 -6 -196 -17 -204 -24 -6 -6 -15 -2 -22 8 -13 16
-14 15 -20 -5 -5 -18 -10 -21 -24 -13 -15 8 -20 6 -25 -10 -4 -11 -11 -17 -17
-14 -5 4 -23 -3 -39 -15 -22 -16 -29 -18 -29 -7 0 7 9 16 21 19 11 3 23 15 26
27 4 16 8 18 14 8 7 -10 11 -11 17 0 5 7 16 10 25 6 11 -4 19 0 23 10 7 19 30
21 37 4 3 -10 7 -10 17 -1 7 6 19 9 28 6 8 -4 20 1 27 11 11 15 13 15 19 1 3
-10 11 -13 18 -8 7 4 23 6 36 4 12 -1 22 3 22 9 0 7 5 8 13 3 17 -11 61 -11
68 0 4 6 15 6 25 2 11 -4 34 -9 52 -11 27 -3 32 0 32 18 l0 21 23 -21 c32 -30
37 -28 35 16 l-1 37 -4 -34 -4 -33 -30 28 c-28 27 -29 27 -29 6 0 -12 -4 -22
-10 -22 -5 0 -10 21 -10 46 0 47 4 49 43 16 11 -10 17 -11 17 -4 0 7 -4 12 -9
12 -5 0 -7 9 -4 21 3 11 9 17 12 12 3 -5 14 -12 23 -16z"/>
</g>
</svg>
